/* XPM */
static char *_df4b48576114715f5867a7e5324e70256NeGX0S79SGdaZk[] = {
/* columns rows colors chars-per-pixel */
"32 32 114 2 ",
"   c None",
".  c #0C050D",
"X  c #0E0611",
"o  c #0F0810",
"O  c #110714",
"+  c #120914",
"@  c #140919",
"#  c #1A0B1E",
"$  c #171018",
"%  c #1C151D",
"&  c #1C0422",
"*  c #160D21",
"=  c #1D0D22",
"-  c #1A0D29",
";  c #191028",
":  c #1F1130",
">  c #200425",
",  c #210D26",
"<  c #250D2B",
"1  c #201024",
"2  c #231D24",
"3  c #25102C",
"4  c #29132E",
"5  c #2A0E34",
"6  c #320F3D",
"7  c #271031",
"8  c #2C1233",
"9  c #2F1836",
"0  c #2E1438",
"q  c #311437",
"w  c #32153B",
"e  c #33183B",
"r  c #381C3E",
"t  c #2D262E",
"y  c #2F2930",
"u  c #312B33",
"i  c #363137",
"p  c #3C363D",
"a  c #391543",
"s  c #371A42",
"d  c #3A1A44",
"f  c #3F1B4B",
"g  c #421C4D",
"h  c #441D52",
"j  c #481D52",
"k  c #433E45",
"l  c #462151",
"z  c #482256",
"x  c #4C225B",
"c  c #50245F",
"v  c #542463",
"b  c #562E64",
"n  c #582A66",
"m  c #5A2769",
"M  c #5D296B",
"N  c #5E316A",
"B  c #622B74",
"V  c #692E77",
"C  c #652E78",
"Z  c #6B2F7C",
"A  c #65317A",
"S  c #6D327F",
"D  c #524D53",
"F  c #555056",
"G  c #5A565C",
"H  c #5D585D",
"J  c #656066",
"K  c #6A656B",
"L  c #726E73",
"P  c #787478",
"I  c #6E2F80",
"U  c #6F3285",
"Y  c #713386",
"T  c #703982",
"R  c #75348B",
"E  c #7C358C",
"W  c #7B3F8E",
"Q  c #7D3691",
"!  c #7D3A94",
"~  c #7C3995",
"^  c #7F3A98",
"/  c #833696",
"(  c #833797",
")  c #85379B",
"_  c #833998",
"`  c #833999",
"'  c #81399A",
"]  c #853B9A",
"[  c #863C9C",
"{  c #883F9F",
"}  c #8C3BA1",
"|  c #8D3AA2",
" . c #8A3CA0",
".. c #8C3EA4",
"X. c #903CA5",
"o. c #903FAA",
"O. c #953FAD",
"+. c #844199",
"@. c #8C40A4",
"#. c #9243A5",
"$. c #9141A7",
"%. c #9040AA",
"&. c #9141AB",
"*. c #9541AA",
"=. c #9440AD",
"-. c #9741B1",
";. c #9743B0",
":. c #AA49C1",
">. c #838084",
",. c #89858A",
"<. c #908C90",
"1. c #959296",
"2. c #CECDCF",
"3. c #E4E4E5",
/* pixels */
"                                                                ",
"                        . . .                                   ",
"                    + @ , q O 2                                 ",
"                  y . * j S + . H                               ",
"                ,.+ 4 # Q x . . 2     L L L L                   ",
"                G O 1 < Y = . . + D u . . . . t F               ",
"                k . 7 | x o o . . X @ . < 8 < o + t             ",
"                k . :.R = , o . . . o s  .=.] v w o + t         ",
"              2.k ; O R + . . . + 8 z Q , X : f o.a o o o +.    ",
"              2.k O @ O.C # . . o l ..0 o . . @ x ! 7 ; . . 1.  ",
"              2.k . e , %.v . . @ W v . * . . . o z &.8 o o $   ",
"              2.k . . @ B h = o @ T g . 7 . . . . . V U o o o   ",
"      . . L <.3.K + . . g Y e * @ b O . . . . . o @ . r $ $ .   ",
"    . . . - % D u o . . , V A # e 0 . . X . . . # # . . o $ o   ",
"  o = , X O . . o . . . . # , . @ # N #.&.& . X o o $ . o o     ",
"  + o S , . , . . . . . . + . . o # = g ^ -.f 0 o     J J       ",
"    . I S @ @ . . . o . o + + 4 O @ @ . 7 0 ' ) w i             ",
"    2 - C +., # . . r . O n q O v > . . . . 5 ' g o             ",
"      . . / Z Z = o w w v | 8 . v > . . . . 3 B z = .           ",
"      y . . 5 Q B l ;.c m f . . g # . . . . 3 B x , . u         ",
"          . + 4 d h v . . O O . h & . . . . # v M e . u         ",
"              . @ o . O 7 . . . h 6 . . . . . g S 8 . u         ",
"              P o . . X + . . & I & o . . . . g S = . u         ",
"            % + . . . . . . O 6 c X X . . X 0 f V # .           ",
"          . . . . . O O @ w v ) w o . . . . . w g + .           ",
"          i . + = 8 { {  ...o., + . . . . . - j g .             ",
"            . o g E ( ( ` ) 0 O , . . . . . # B g .             ",
"            . . . , o o @ @ . . . . p t . . w | 5 .             ",
"            L . . = . . . . . . D     H . . , g * O             ",
"              K . . . . . .             2 . . O @ o             ",
"                                            . .                 ",
"                                                                "
};
