/* XPM */
static char *_294bc4c076e4cacfa49f573c41f5a4alSfytuEElilpetVh[] = {
/* columns rows colors chars-per-pixel */
"32 32 178 2 ",
"   c None",
".  c black",
"X  c #040204",
"o  c #070707",
"O  c #0C090B",
"+  c #100C01",
"@  c #151515",
"#  c #191718",
"$  c gray10",
"%  c gray11",
"&  c #1D1D1D",
"*  c #221C1F",
"=  c #271F23",
"-  c gray14",
";  c #262425",
":  c gray15",
">  c #2A2A2A",
",  c gray18",
"<  c #30252B",
"1  c #30262B",
"2  c #32292D",
"3  c #332A2F",
"4  c #342B2F",
"5  c #332C30",
"6  c #362E32",
"7  c #372F33",
"8  c #313131",
"9  c #373235",
"0  c #383135",
"q  c #383336",
"w  c #393336",
"e  c #3A3337",
"r  c #393436",
"t  c #3E373B",
"y  c #393939",
"u  c #3A3839",
"i  c #3B393A",
"p  c #3F393C",
"a  c #3C3C3C",
"s  c #3E3C3D",
"d  c #3F3D3E",
"f  c #3F3F3F",
"g  c #4F3421",
"h  c #583B29",
"j  c #40393C",
"k  c #41393D",
"l  c #423A3E",
"z  c #403E3F",
"x  c #433F41",
"c  c #443C40",
"v  c #453E41",
"b  c #463E42",
"n  c gray25",
"m  c gray26",
"M  c #434242",
"N  c #434343",
"B  c #444042",
"V  c #454143",
"C  c #474144",
"Z  c #464646",
"A  c gray28",
"S  c #494145",
"D  c #4A4347",
"F  c #494748",
"G  c #4D4649",
"H  c #484848",
"J  c #494949",
"K  c #4E484B",
"L  c gray30",
"P  c #4E4C4D",
"I  c #4E4E4E",
"U  c #585349",
"Y  c #515151",
"T  c #535152",
"R  c gray32",
"E  c #555052",
"W  c gray33",
"Q  c #555555",
"!  c #565656",
"~  c gray34",
"^  c #585858",
"/  c #5B585A",
"(  c #5A5A5A",
")  c #5E595C",
"_  c gray36",
"`  c #5D5D5D",
"'  c gray37",
"]  c #615E5F",
"[  c #606060",
"{  c #636162",
"}  c gray39",
"|  c #656364",
" . c #646464",
".. c gray40",
"X. c #676667",
"o. c #686868",
"O. c DimGray",
"+. c #6A6A6A",
"@. c gray42",
"#. c #6E6B6C",
"$. c #6C6C6C",
"%. c gray43",
"&. c #6F6F6F",
"*. c #706E6F",
"=. c #726F71",
"-. c #717171",
";. c #727171",
":. c #727272",
">. c gray45",
",. c #747474",
"<. c gray46",
"1. c #777777",
"2. c #797979",
"3. c gray48",
"4. c #7B7B7B",
"5. c #7C7C7C",
"6. c gray49",
"7. c #7E7E7E",
"8. c gray50",
"9. c #808080",
"0. c #818181",
"q. c gray51",
"w. c #848484",
"e. c #888888",
"r. c gray54",
"t. c gray55",
"y. c #8E8C8D",
"u. c gray56",
"i. c gray57",
"p. c gray58",
"a. c #969495",
"s. c gray59",
"d. c #9A9A9A",
"f. c #9D9D9D",
"g. c #9E9C9D",
"h. c gray63",
"j. c #A2A2A2",
"k. c #A4A4A4",
"l. c #A5A5A5",
"z. c gray66",
"x. c #AAAAAA",
"c. c gray67",
"v. c gray68",
"b. c #AFAFAF",
"n. c gray69",
"m. c #B1B1B1",
"M. c gray70",
"N. c #B9B9B9",
"B. c gray73",
"V. c #BBBBBB",
"C. c gray74",
"Z. c gray76",
"A. c gray77",
"S. c #C5C5C5",
"D. c #C6C6C6",
"F. c #C8C8C8",
"G. c gray79",
"H. c gray81",
"J. c #D0D0D0",
"K. c gray82",
"L. c LightGray",
"P. c #D5D5D5",
"I. c #D8D6D7",
"U. c gray86",
"Y. c gray87",
"T. c gray89",
"R. c #E4E4E4",
"E. c #E6E6E6",
"W. c #E7E6E7",
"Q. c gray91",
"!. c gray92",
"~. c #ECECEC",
"^. c gray94",
"/. c #F4F4F4",
"(. c #F6F6F6",
"). c #F9F9F9",
"_. c #FBFBFB",
"`. c white",
/* pixels */
"                                                                ",
"                                                                ",
"                                                                ",
"                                                      1 1       ",
"                                                      =.=.3     ",
"                                                    v q.[ 3     ",
"                                                    b 2.,.l.S   ",
"                                                    j -.l.).S   ",
"              e <                                   9 &.=.G.v   ",
"          B B e <                                   e 2.e.c.-   ",
"        3 t S P v 9 j 4                               #.p.Y.c.  ",
"      B [ &.@.P ] | V.e 1                             ] p.Y.d   ",
"    e &.e.w.-.-.h.^.( u d         5 5                 [ u.Y.,   ",
"  < T q.w.-.-.-.a.w.r J P u 1 r u J u e d J r       t &.5.`.K.- ",
"  < &.-.U + | -.O.^ N P | 9 m f N T t ( ~ m J 9 3 e ` ( `.n.. . ",
"  a.n.[ h g | -.O.^ o.2.-.~ A P N [ &.8.4.| &.T d T ( M./.z.`   ",
"  j K.z.t.q.l./.Z.7.P.u.P J -.-.[ ,.e.w.7.-.-.[ T m T.T.n.y .   ",
"  - v.K./.!.`.D.R.`.U.-. .O.-.-.-.,.1.,.-.-.-.-.P e.j.h.y 8     ",
"    . ` 7.5.C.S.n.`.`.v.t.-.-.-.-.-.n.`.R.a.a.e.4...9.@.. .     ",
"            D l.~.Y.`.`./.t.-.-.t.U.`.Y.`.`.`.K.V.: O.> .       ",
"            - % R.h.`.`.`./.W.^.^.^.A.d./.`./.G.-.~ @ %         ",
"              . u.g.Y.`.A.h.l.S.C.C.h.u ( /.`./.u.@             ",
"                X K U.Q.-.m &.w.f m % ` o % H.`.~.8             ",
"                9.R.^.l.O = $ $       * * % # I._.c..           ",
"              i.S.S.n.- ) d.1       G f.d.D E V.S.v..           ",
"              Y.^.K.,                       a./.R.~             ",
"                                                                ",
"                                                                ",
"                                                                ",
"                                                                ",
"                                                                ",
"                                                                "
};
