/* XPM */
static char *_85b90e010284341fd3e0f017a6f0b339IqV61Awl5LkBabK[] = {
/* columns rows colors chars-per-pixel */
"32 32 165 2 ",
"   c None",
".  c black",
"X  c gray4",
"o  c #0C0C0C",
"O  c #1E1B1C",
"+  c gray11",
"@  c #1D1D1D",
"#  c #211A1E",
"$  c gray14",
"%  c gray15",
"&  c #272727",
"*  c gray16",
"=  c gray18",
"-  c #30252B",
";  c #30262B",
":  c #332A2F",
">  c #342B2F",
",  c #332C30",
"<  c #352D31",
"1  c #362E32",
"2  c #313131",
"3  c #363033",
"4  c #373034",
"5  c #373737",
"6  c #383135",
"7  c #383336",
"8  c #393336",
"9  c #3A3337",
"0  c #393436",
"q  c #3B3538",
"w  c #3D363A",
"e  c #3A3839",
"r  c #3B393A",
"t  c gray23",
"y  c #3C3C3C",
"u  c #3D3C3D",
"i  c #3F3D3E",
"p  c #45310F",
"a  c #604727",
"s  c #433F41",
"d  c #443C40",
"f  c #453F42",
"g  c gray25",
"h  c gray26",
"j  c #434343",
"k  c #444042",
"l  c #474144",
"z  c #444444",
"x  c gray27",
"c  c #464646",
"v  c gray28",
"b  c #494145",
"n  c #494748",
"m  c #4C474A",
"M  c #494949",
"N  c gray29",
"B  c #4B4B4B",
"V  c #4C4B4C",
"C  c gray30",
"Z  c #4E4E4E",
"A  c gray31",
"S  c #50484C",
"D  c #534B4F",
"F  c #504F50",
"G  c #554D51",
"H  c #515151",
"J  c #575054",
"K  c #575355",
"L  c gray33",
"P  c #555555",
"I  c #565656",
"U  c gray34",
"Y  c #5D565A",
"T  c #585858",
"R  c gray35",
"E  c #5A5A5A",
"W  c #5B5B5B",
"Q  c #5C5A5B",
"!  c #5E595C",
"~  c #5D5D5D",
"^  c #5F5D5E",
"/  c gray37",
"(  c #5F5F5F",
")  c #615E5F",
"_  c #6A625F",
"`  c #606060",
"'  c gray38",
"]  c gray39",
"[  c #656565",
"{  c gray40",
"}  c #676767",
"|  c #686667",
" . c #686868",
".. c DimGray",
"X. c gray42",
"o. c #6C6C6C",
"O. c #6F6F6F",
"+. c #726F71",
"@. c #717171",
"#. c #727272",
"$. c gray45",
"%. c gray46",
"&. c #767676",
"*. c #777777",
"=. c #797979",
"-. c gray48",
";. c #7B7B7B",
":. c #7D7C7C",
">. c gray49",
",. c #7E7E7E",
"<. c #818181",
"1. c gray51",
"2. c #848484",
"3. c gray52",
"4. c #878586",
"5. c #868686",
"6. c #888888",
"7. c gray55",
"8. c #909090",
"9. c gray57",
"0. c #929292",
"q. c gray58",
"w. c #999798",
"e. c gray60",
"r. c #9A9A9A",
"t. c #9D9D9D",
"y. c #A4A4A4",
"u. c gray65",
"i. c #A9A7A8",
"p. c gray66",
"a. c gray67",
"s. c #AFAFAF",
"d. c gray69",
"f. c #B2B2B2",
"g. c gray70",
"h. c gray71",
"j. c gray73",
"k. c #BBBBBB",
"l. c gray74",
"z. c #C0C0C0",
"x. c #C1C1C1",
"c. c gray77",
"v. c #C5C5C5",
"b. c #C6C6C6",
"n. c #C8C8C8",
"m. c gray79",
"M. c #CBCBCB",
"N. c gray81",
"B. c #D0D0D0",
"V. c gray82",
"C. c LightGray",
"Z. c #D5D3D4",
"A. c gray83",
"S. c #D8D6D7",
"D. c gray86",
"F. c gray87",
"G. c #DFDFDF",
"H. c #E4E4E4",
"J. c #E6E6E6",
"K. c #ECECEC",
"L. c gray94",
"P. c #F4F4F4",
"I. c #F6F6F6",
"U. c #FBFBFB",
"Y. c white",
/* pixels */
"                                                                ",
"                                                                ",
"                                                                ",
"                                                                ",
"                                                                ",
"            d +.;                                               ",
"          ; ' 2.;                                               ",
"      ; b | #.2.;                                               ",
"      w.Y.g.#.-.;                                               ",
"      Y H.<.*.m                                   d ;           ",
"    N g.#.-.k                                   3 C 9           ",
"= q.M.Y.*.m                               ; L - N w < ;         ",
"  e.P.q.)                                 4 -.X.d O.X.l 4       ",
"  . C.q.)                 ; ;         0 9 n H.q.X.#.<.<.' 4     ",
"@ k.Y.>.X.9       > 9 < : t g 4 : - 3 C u k s.g.@.@.*.2.<.l     ",
"  t b.G.k.^ n ; > u c C V 9 H g y t , Q C t ( *.@.@.@ ^ *.E ;   ",
"    j D.G.~ ] q N X.N X.#.E I c v C C #.^ E L E #.n p a X.g.G   ",
"    & 2.P.A.v Z E #.#.<.6.2.O.H X.] c I 9.k.L k.C.<._ _ 2.M.S   ",
"  . I I f.f.U C @.@.#.@.*.<.>.#.O.#.X.I #.D.Y.s.K.Y.b.H.H.l.^   ",
"      . ;.0.2.^ @.@.#.x.D.7.#.#.#.#.O.O.7.P.Y.b.l.A.k.k.6.*     ",
"      c X ^ & k.C.Y.Y.Y.P.Y.9.-.#.O.-.H.Y.Y.P.b.k.2.. . .       ",
"          ^ N 2.n.P.Y.Y.s.C.Y.H.D.D.H.Y.Y.Y.d.P.j &             ",
"          . g I C.Y.U.a.} g.N.U.b.t.C.Y.L.Z.8.i..               ",
"          . g O.P.Y.u X ^ t #.a.c 5 C.Y.i.O #.@                 ",
"          . #.2 a.U.N.C c . . c X 2.G.S.# @ k ^                 ",
"          . -.-.* b.C.y.I       & k.C.;.} & e.e.2.D             ",
"          . e.e.I *.M.C.D.        *.M.C.D.  & e.i.G             ",
"                                                                ",
"                                                                ",
"                                                                ",
"                                                                ",
"                                                                "
};
