/* XPM */
static char *_efdd23c295b4828fb97c1585c5b555ezvVYvazZEYdFyYLK[] = {
/* columns rows colors chars-per-pixel */
"32 32 187 2 ",
"   c None",
".  c black",
"X  c #040404",
"o  c #060606",
"O  c #070707",
"+  c #090909",
"@  c #0A0809",
"#  c #0B0809",
"$  c #0B0B0B",
"%  c #0C0A0B",
"&  c #0D0A0B",
"*  c gray6",
"=  c #111111",
"-  c #161616",
";  c #1B1B1B",
":  c #1D181A",
">  c #1D1D1D",
",  c #1E1C1D",
"<  c #1E1E1E",
"1  c gray12",
"2  c #202020",
"3  c #222222",
"4  c gray14",
"5  c gray15",
"6  c gray18",
"7  c #30262B",
"8  c #31262B",
"9  c #30252C",
"0  c #30262C",
"q  c #31282C",
"w  c #33292E",
"e  c #322A2E",
"r  c #342A2F",
"t  c #342C30",
"y  c #352C30",
"u  c #382F34",
"i  c #333032",
"p  c gray20",
"a  c #373234",
"s  c #353535",
"d  c #3B3337",
"f  c #393437",
"g  c #3A3437",
"h  c #3A3537",
"j  c #3B3438",
"k  c #393638",
"l  c #3D3639",
"z  c #3F353A",
"x  c #3E373A",
"c  c #393939",
"v  c #3B393A",
"b  c #3A3A3A",
"n  c #3C3B3B",
"m  c #3F393C",
"M  c #3D3B3C",
"N  c #3F3A3D",
"B  c #3C3C3C",
"V  c #3D3C3C",
"C  c #3E3D3E",
"Z  c #3E3E3E",
"A  c #40373C",
"S  c #403B3D",
"D  c #423B3E",
"F  c #403E3F",
"G  c #423D40",
"H  c #413F40",
"J  c #453D42",
"K  c gray25",
"L  c #434041",
"P  c #434242",
"I  c #454344",
"U  c #464244",
"Y  c #454444",
"T  c #474445",
"R  c #484747",
"E  c #494949",
"W  c gray29",
"Q  c #4C4A4B",
"!  c #4E4A4C",
"~  c #4D4C4D",
"^  c gray30",
"/  c #4E4D4E",
"(  c #4E4E4E",
")  c #4F4E4E",
"_  c gray31",
"`  c #505050",
"'  c #515151",
"]  c #525051",
"[  c gray32",
"{  c #535353",
"}  c #555555",
"|  c #565656",
" . c gray34",
".. c #5A5457",
"X. c #5D575A",
"o. c #5B595A",
"O. c #5A5A5A",
"+. c #5B5B5B",
"@. c #5D5C5D",
"#. c #5D5D5D",
"$. c gray37",
"%. c #5F5E5F",
"&. c #5F5F5F",
"*. c #615F60",
"=. c gray38",
"-. c #626262",
";. c #676767",
":. c #696567",
">. c #686667",
",. c #686868",
"<. c #6A6A6A",
"1. c gray42",
"2. c #6C6C6C",
"3. c #6D6D6D",
"4. c gray43",
"5. c #6F6F6F",
"6. c #716D6F",
"7. c gray44",
"8. c #717171",
"9. c #727272",
"0. c #747474",
"q. c #777476",
"w. c gray47",
"e. c #797979",
"r. c #7B7A7B",
"t. c #7C7C7C",
"y. c #7E7E7E",
"u. c #858283",
"i. c #878284",
"p. c #868385",
"a. c gray52",
"s. c #868686",
"d. c #898989",
"f. c #8D8D8D",
"g. c #8E8E8E",
"h. c #929292",
"j. c #979797",
"k. c #9A9A9A",
"l. c gray61",
"z. c gray62",
"x. c #9F9F9F",
"c. c gray63",
"v. c #A7A4A6",
"b. c #AAAAAA",
"n. c gray67",
"m. c gray68",
"M. c gray69",
"N. c gray70",
"B. c #B4B4B4",
"V. c #B6B5B5",
"C. c #B6B6B6",
"Z. c #B7B7B7",
"A. c #BAB8B9",
"S. c gray73",
"D. c #BBBBBB",
"F. c #BDBCBC",
"G. c gray74",
"H. c gray75",
"J. c #C1C1C1",
"K. c #C3C3C3",
"L. c #C5C5C5",
"P. c #C6C6C6",
"I. c gray78",
"U. c #C8C8C8",
"Y. c gray79",
"T. c #CACACA",
"R. c #CDCCCC",
"E. c #CECECE",
"W. c gray83",
"Q. c gray84",
"!. c #DADADA",
"~. c gray87",
"^. c gray88",
"/. c #E1E1E1",
"(. c gray90",
"). c #EAEAEA",
"_. c gray92",
"`. c #ECECEC",
"'. c #EEEDED",
"]. c #EEEEEE",
"[. c gray95",
"{. c #F3F3F3",
"}. c gray97",
"|. c #F9F9F9",
" X c #FBFBFB",
".X c #FEFEFE",
"XX c white",
/* pixels */
"                                                                ",
"                                                                ",
"                                                                ",
"                                                                ",
"                                . .   0 $.Q 0                   ",
"                                8.'.:.8.;.H 7                   ",
"                    f D     0 0 # ~.V.8.] :                     ",
"                  7 O.$.w J 2.8.5 5 .Xt.' -                     ",
"                  7 | 2.8.,.a.| H./.[.t.>                       ",
"                  7 ' | 8.8.0.O.v..X/.D..                       ",
"                  7 M ' 8.8.| v X.D.W.2.>                       ",
"                  7 H ,.$.8.' 2.[.|.e.p 3                       ",
"                  ~ P x 8.2.> A u.H.~ s k &                     ",
"                  S f *.8.Y R..X_.h.V > > #                     ",
"                  v E 8.2.r A M.I.d.5 _ i &                     ",
"                  n O.8.,.t..X/.6 # ' P k &                     ",
"                  E O.8.,.,. X_.&.$ #.^ V =                     ",
"                M ~ x ,.2.y H.T.v 8.=.Z V y .                   ",
"                S y O.8.,.t..X'.Z 8.=.w V y .                   ",
"                a w O.8.,.=.|.R.; 2.E ^ w 0 .                   ",
"                  :...M =.O.J._.P ' I E ! &                     ",
"                  :.p.Y d I V..XD.f k e.q.&                     ",
"                  J x.i.H.b.}.}.W.$.6.k.-                       ",
"                  W.'..X(.H.n.m.l.(.T.l.t.3                     ",
"                  e.W.!.|.2.X # X T.P.- O                       ",
"                    j.D.N.k.=   g.k.;.X                         ",
"                  8.D.P.k.k.=   g.g.5                           ",
"                    a.V.P.V.c..                                 ",
"                                                                ",
"                                                                ",
"                                                                ",
"                                                                "
};
