/* XPM */
static char *_5b8c620d2884c1cb2cc8c87f704dc59vSqrOzJbakKtmq3J[] = {
/* columns rows colors chars-per-pixel */
"32 32 180 2 ",
"   c None",
".  c black",
"X  c #020101",
"o  c gray1",
"O  c #070501",
"+  c #040404",
"@  c gray2",
"#  c #0D0B0C",
"$  c gray5",
"%  c #0F0D0E",
"&  c #131313",
"*  c #151314",
"=  c #161314",
"-  c #171415",
";  c #161616",
":  c #191618",
">  c #181718",
",  c #1A1618",
"<  c #1D1D1D",
"1  c gray12",
"2  c #221F20",
"3  c #262224",
"4  c #2C2629",
"5  c #312320",
"6  c #30262B",
"7  c #30272B",
"8  c #30262C",
"9  c #30272C",
"0  c #31272C",
"q  c #32292D",
"w  c #32292E",
"e  c #332B2F",
"r  c #332D30",
"t  c #342C30",
"y  c #342D30",
"u  c #342D31",
"i  c #372D31",
"p  c #352E30",
"a  c #352E31",
"s  c #342E32",
"d  c #352E32",
"f  c #313131",
"g  c #363134",
"h  c #373335",
"j  c #353535",
"k  c #363536",
"l  c gray21",
"z  c #373737",
"x  c #393235",
"c  c #383336",
"v  c #393336",
"b  c #383436",
"n  c #393537",
"m  c #3B3438",
"M  c #393638",
"N  c #3D3539",
"B  c #3C3639",
"V  c #3A3839",
"C  c #3A3A3A",
"Z  c gray23",
"A  c #3C3A3B",
"S  c #3C3B3B",
"D  c #3C3B3C",
"F  c #3F3A3D",
"G  c #3D3C3D",
"H  c #40373C",
"J  c #40393D",
"K  c #403B3D",
"L  c #413C3E",
"P  c #403F3F",
"I  c #584B2F",
"U  c #413E40",
"Y  c #413F40",
"T  c #443D40",
"R  c #473E42",
"E  c gray25",
"W  c #414141",
"Q  c #454244",
"!  c #444444",
"~  c gray27",
"^  c #464445",
"/  c #474646",
"(  c gray28",
")  c #484647",
"_  c #4B4649",
"`  c #484848",
"'  c #494949",
"]  c #4B4B4B",
"[  c #4C4A4B",
"{  c #4E4B4C",
"}  c #4D4C4D",
"|  c #4F4E4F",
" . c #504D4E",
".. c #505050",
"X. c #515050",
"o. c #515151",
"O. c gray32",
"+. c #535353",
"@. c gray33",
"#. c #565656",
"$. c #585758",
"%. c gray35",
"&. c #5B585A",
"*. c #5A5A5A",
"=. c #5B5B5B",
"-. c #5D5A5C",
";. c gray36",
":. c gray37",
">. c #5F5F5F",
",. c #606060",
"<. c #636263",
"1. c gray39",
"2. c #646464",
"3. c #676666",
"4. c #676767",
"5. c #686868",
"6. c DimGray",
"7. c #6A6969",
"8. c gray42",
"9. c #6C6C6C",
"0. c #6D6C6C",
"q. c #6D6D6D",
"w. c #6F6E6E",
"e. c #6F6F6F",
"r. c gray44",
"t. c #717171",
"y. c #727272",
"u. c gray45",
"i. c #747474",
"p. c gray48",
"a. c #7B7B7B",
"s. c #7C7C7C",
"d. c gray49",
"f. c #7E7E7E",
"g. c gray50",
"h. c #825328",
"j. c #808080",
"k. c #818181",
"l. c #828081",
"z. c #848484",
"x. c gray52",
"c. c gray53",
"v. c #888888",
"b. c #898989",
"n. c gray54",
"m. c #939393",
"M. c #959595",
"N. c #979797",
"B. c #9A9A9A",
"V. c #9B9B9B",
"C. c gray61",
"Z. c #9F9F9F",
"A. c #A2A2A2",
"S. c #A9A9A9",
"D. c gray69",
"F. c gray70",
"G. c #B7B7B7",
"H. c #BCBBBC",
"J. c gray",
"K. c #C3C3C3",
"L. c gray77",
"P. c #C5C5C5",
"I. c #C6C6C6",
"U. c gray79",
"Y. c #CACACA",
"T. c #CBCBCB",
"R. c gray80",
"E. c #D2D2D2",
"W. c #DDDDDD",
"Q. c #DFDFDF",
"!. c gray88",
"~. c #E1E1E1",
"^. c gray89",
"/. c gray91",
"(. c #EEEEEE",
"). c #F1F1F1",
"_. c gray96",
"`. c #F6F6F6",
"'. c #FEFEFE",
"]. c white",
/* pixels */
"                                                                ",
"                        & 1.                                    ",
"                      + + s.3                                   ",
"                    T l.E.F.Q.8.l                               ",
"                  0 o.#.>.;.B.W.!..                             ",
"                    x o.+.%.~ M.!.V                             ",
"                    u N +.5.i.o.M.).]                           ",
"                        6 G j.5.! J.'                           ",
"                          u _ 5.~ b.                            ",
"                            w '  .o.~                           ",
"                          0 G u b V ;.-                         ",
"                        4 w V } _ Q u b                         ",
"                      6 E ,.r.r.r.e.>.E V                       ",
"                      6 b Q 0.s.i.>.Q l u                       ",
"                    r u w ;.r.i.u.0. .w e e                     ",
"                  6 V N 0._ 3.r.9.%.L 0.3 l 6                   ",
"                  0 x 1.R.%.3.r.8.&.$.R.>.< 4                   ",
"                  } J R.(.r.r.b.p.r.r.(.T.< S                   ",
"                N ~ x Z.b.r.s.b.k.r.6.c.Z.> G u                 ",
"                J E 0 } r.r.r.r.r.r.r.@.L # % x                 ",
"                0 u S ~ O I 0.k.k.e.I O Q f > 4                 ",
"                  w Y [ 5 h.6.C.V.6.h.5 [ V -                   ",
"                g w L #.s.k.x.`.`.x.k.2.#.G % g                 ",
"                u b } j.I.I.!.G.H.Q.I.K.s.3 , u                 ",
"                  0 p.l C.B.C.I.I.C.B.C.+ .                     ",
"                    x.I.;.o.- M l , ;.' x.                      ",
"                      D.].!.J V.B.T ].U.x.                      ",
"                      A.]./.I.. 4 U.`.S..                       ",
"                      B.!.].T.;.%.I.b.                          ",
"                      r.I.!.].F.                                ",
"                        r.G.k.F.                                ",
"                                                                "
};
